{"title":"Twilight.Zone.The.Movie.1983.BRRip.720p.x264.AAC-PRiSTiNE [P2PDL","uid":13122388,"size":694254417,"categoryP":"video","categoryS":"hd___movies","magnet":"?xt=urn:btih:acef34b3fd8c5c9235045caf0906cc6fc158e9f0&amp;dn=Twilight.Zone.The.Movie.1983.BRRip.720p.x264.AAC-PRiSTiNE+%5BP2PDL&amp;tr=udp%3A%2F%2Ftracker.leechers-paradise.org%3A6969&amp;tr=udp%3A%2F%2Fzer0day.ch%3A1337&amp;tr=udp%3A%2F%2Fopen.demonii.com%3A1337&amp;tr=udp%3A%2F%2Ftracker.coppersurfer.tk%3A6969&amp;tr=udp%3A%2F%2Fexodus.desync.com%3A6969","seeders":18,"leechers":1,"uploader":"VYTOP2PDL","files":7,"time":1451726378,"description":"____    ____ ____    ____ .___________.  ______   \r\n     /   /      /   / |           | /  __    \r\n    /   /      /   /  `---|  |----`|  |  |  | \r\n        /     _    _/       |  |     |  |  |  | \r\n       /        |  |         |  |     |  `--'  | \r\n    __/         |__|         |__|      ______/  \r\n                                                  \r\nPresenting Small Encodes with quality for years!\r\n                                                                                                   \r\n                                                                                                   \r\n\r\nTwilight.Zone.The.Movie.1983.BRRip.720p.x264.AAC-PRiSTiNE\r\n\r\n\r\nGenre: Horror, Sci-Fi  \nhttp://www.imdb.com/title/tt0086491/\r\n\r\n\r\nFormat                                   : MPEG-4\r\nFile size                                : 651 MiB\r\nDuration                                 : 1h 41mn\r\nOverall bit rate                         : 899 Kbps\r\n\r\nVideo\r\nFormat                                   : AVC\r\nBit rate                                 : 816 Kbps\r\nWidth                                    : 1 280 pixels\r\nHeight                                   : 720 pixels\r\nDisplay aspect ratio                     : 16:9\r\nFrame rate mode                          : Constant\r\nFrame rate                               : 23.976 fps\r\nBit depth                                : 8 bits\r\nStream size                              : 591 MiB (91%)\r\nWriting library                          : x264 \r\n\r\nAudio\r\nFormat                                   : AAC\r\nBit rate mode                            : Variable\r\nBit rate                                 : 80.0 Kbps\r\nChannel(s)                               : 2 channels\r\nChannel positions                        : Front: L R\r\nSampling rate                            : 48.0 KHz \r\nStream size                              : 57.9 MiB (9%)\r\nLanguage                                 : English\r\n\r\nSubtitle                                 : Yes (English)\r\n\r\nScreen Shots: (Click to view)\r\n \nhttp://ititli.com/Zv \nhttp://ititli.com/ZR \nhttp://ititli.com/Zy \nhttp://ititli.com/Z3 \nhttp://ititli.com/ZE \nhttp://ititli.com/ZQ \nhttp://ititli.com/ZS \nhttp://ititli.com/ZZ \nhttp://ititli.com/Zc\r\n\r\n----------------------------------------------------------------------------------------------------\r\n\r\n\r\nEncoder Notes: Looking For Early Access To Anything You Can Provide WEBDL, DVDScr, DVDR, BluRay,\r\nDirect Audio, Music Releases and Seedboxes. If You Got anything to offer please contact us.\r\n\r\nSupport us by donating BC - 1FgwdzPsd1y25Gea8wP1qni35uGCtmkRCD\r\n\r\nSend some love!\r\nFind us and join us!","torrent":{"xt":"urn:btih:acef34b3fd8c5c9235045caf0906cc6fc158e9f0","amp;dn":"Twilight.Zone.The.Movie.1983.BRRip.720p.x264.AAC-PRiSTiNE+%5BP2PDL","amp;tr":["udp%3A%2F%2Ftracker.leechers-paradise.org%3A6969","udp%3A%2F%2Fzer0day.ch%3A1337","udp%3A%2F%2Fopen.demonii.com%3A1337","udp%3A%2F%2Ftracker.coppersurfer.tk%3A6969","udp%3A%2F%2Fexodus.desync.com%3A6969"],"infoHash":"acef34b3fd8c5c9235045caf0906cc6fc158e9f0","infoHashBuffer":{"type":"Buffer","data":[172,239,52,179,253,140,92,146,53,4,92,175,9,6,204,111,193,88,233,240]},"announce":[],"urlList":[]}}